<svg width="22" height="25" viewBox="0 0 22 25" fill="none" xmlns="http://www.w3.org/2000/svg">
<g clip-path="url(#clip0_1550_31000)">
<path d="M0.0980382 15.9717C0.0980382 14.3609 0.0980382 12.7535 0.0980382 11.1426C0.0980382 10.4166 0.405849 10.1127 1.13986 10.1093C1.77239 10.1093 2.40831 10.1025 3.04084 10.1093C3.20997 10.1093 3.27762 10.0755 3.29453 9.8898C3.53469 7.13759 3.78162 4.38875 4.02516 1.63991C4.09281 0.873339 4.59681 0.478235 5.36464 0.549151C7.29607 0.72813 9.2275 0.896978 11.1623 1.0692C13.0227 1.23805 14.8797 1.43391 16.7435 1.55886C17.3591 1.59938 17.7988 1.81889 18.1743 2.28153C18.4449 2.61585 18.7696 2.90964 19.0707 3.22032C19.2635 3.41618 19.3311 3.64919 19.3041 3.92273C19.1146 5.96241 18.932 8.00208 18.7459 10.0451C18.7189 10.3457 18.7223 10.3457 19.0166 10.3457C19.162 10.3457 19.3041 10.3423 19.4495 10.3457C20.0279 10.3693 20.4203 10.7712 20.4237 11.3486C20.4271 12.7096 20.4271 14.0705 20.4237 15.4314C20.4237 15.5969 20.4643 15.7218 20.5928 15.8265C20.6909 15.9075 20.7789 16.0021 20.8634 16.1C21.1273 16.4006 21.1442 16.8092 20.8769 17.1063C20.7653 17.2313 20.7518 17.3258 20.833 17.4609C20.8736 17.5285 20.904 17.6061 20.9243 17.6838C20.9615 17.8189 21.0325 17.8695 21.178 17.8763C21.5907 17.8966 21.8816 18.187 21.8985 18.6023C21.9154 19.0346 21.9154 19.4668 21.8985 19.8991C21.8816 20.3145 21.594 20.6015 21.1814 20.6285C21.0359 20.6386 20.9615 20.6859 20.9277 20.821C20.9108 20.8818 20.8905 20.9459 20.8566 21C20.7552 21.1621 20.7687 21.2803 20.9074 21.4356C21.1509 21.7125 21.1239 22.1245 20.8668 22.4014C20.5658 22.7222 20.2546 23.0363 19.9298 23.3334C19.6356 23.6036 19.2195 23.607 18.9218 23.3402C18.8068 23.2389 18.7223 23.2051 18.5937 23.2929C18.5295 23.3368 18.4483 23.3672 18.3739 23.3841C18.2183 23.4212 18.1675 23.5023 18.1608 23.6678C18.1472 24.0494 17.8225 24.3533 17.4335 24.36C17.0006 24.3702 16.5676 24.3702 16.1346 24.36C15.7321 24.3499 15.4311 24.0629 15.3972 23.6475C15.3837 23.4922 15.333 23.4179 15.1875 23.3841C15.1097 23.3672 15.0353 23.3301 14.9677 23.2895C14.8527 23.2254 14.7715 23.2186 14.6565 23.3233C14.3453 23.607 13.9022 23.5833 13.591 23.2929C13.5842 23.2862 13.5774 23.2828 13.5741 23.276C13.2121 22.7357 12.6946 22.6648 12.0824 22.6682C8.88925 22.6952 5.69951 22.6817 2.5064 22.6783C2.14785 22.6783 1.78592 22.6412 1.43414 22.5567C0.517472 22.3406 0.0912732 21.8003 0.0878906 20.8615C0.0878906 19.2271 0.0878906 17.596 0.0878906 15.9616H0.101421L0.0980382 15.9717ZM15.3161 10.3491C16.1245 10.3491 16.9363 10.3457 17.7447 10.3491C17.9071 10.3491 17.9713 10.3085 17.9781 10.1397C17.9883 9.85941 18.0221 9.5825 18.0491 9.30221C18.1844 7.81298 18.3164 6.32036 18.4584 4.83113C18.4753 4.64202 18.4077 4.59812 18.242 4.58799C17.8022 4.55759 17.3625 4.51369 16.9228 4.47655C16.4221 4.43602 16.1482 4.12872 16.182 3.63569C16.2057 3.30812 16.2327 2.98056 16.2666 2.65637C16.3038 2.30517 16.3071 2.30854 15.9587 2.27815C14.2573 2.12957 12.5559 1.98098 10.8579 1.82902C8.99072 1.66017 7.12018 1.48794 5.25302 1.32247C4.94183 1.29546 4.82344 1.39677 4.79638 1.70407C4.65093 3.30474 4.50886 4.9088 4.36341 6.50947C4.17399 8.62007 3.98457 10.734 3.78838 12.8446C3.77147 13.0371 3.81544 13.0844 4.00825 13.0844C6.23057 13.0776 8.4529 13.0776 10.6718 13.0844C10.8308 13.0844 10.9154 13.0371 10.9898 12.8987C11.3551 12.2334 11.734 11.5749 12.0993 10.9063C12.309 10.5247 12.6066 10.3356 13.0498 10.3457C13.8041 10.3626 14.5584 10.3491 15.3127 10.3491H15.3161ZM7.60388 21.9219C9.15985 21.9219 10.7158 21.9219 12.2718 21.9253C12.424 21.9253 12.5052 21.9016 12.5153 21.7328C12.5255 21.6044 12.5864 21.4829 12.6844 21.3951C12.8028 21.2904 12.8096 21.1925 12.7318 21.0608C12.6844 20.9865 12.6574 20.902 12.6303 20.8176C12.5965 20.696 12.5356 20.642 12.3969 20.6353C11.9369 20.6049 11.6697 20.3111 11.6629 19.8518C11.6595 19.45 11.6562 19.0515 11.6629 18.6496C11.6697 18.2072 11.9471 17.9033 12.3868 17.883C12.539 17.8763 12.5999 17.8155 12.6371 17.6838C12.6574 17.6061 12.6878 17.5318 12.7284 17.4643C12.8096 17.3292 12.7893 17.2347 12.6811 17.1097C12.4138 16.8092 12.4274 16.3972 12.7014 16.1068C12.999 15.7927 13.3068 15.4888 13.6214 15.1916C13.9157 14.9113 14.3419 14.9012 14.6463 15.1747C14.7613 15.2794 14.8493 15.2997 14.9778 15.2186C15.0387 15.1815 15.1063 15.1545 15.1774 15.1376C15.3262 15.1004 15.3905 15.0261 15.404 14.8573C15.4344 14.4554 15.7355 14.165 16.1245 14.1515C16.5642 14.138 17.0073 14.138 17.4471 14.1515C17.8158 14.1616 18.1439 14.4487 18.1608 14.8066C18.1709 15.016 18.2453 15.1072 18.4314 15.1511C18.4923 15.1646 18.5531 15.1916 18.6073 15.2254C18.7257 15.2963 18.817 15.2929 18.9185 15.1849C19.0639 15.0329 19.2635 14.9654 19.4664 14.9991C19.6626 15.0329 19.6694 14.9451 19.6694 14.7931C19.666 13.7058 19.6694 12.615 19.6694 11.5276C19.6694 11.1528 19.6457 11.1291 19.277 11.1291C17.2306 11.1291 15.1875 11.1291 13.1411 11.1224C12.9314 11.1224 12.8265 11.1967 12.7318 11.3723C12.3462 12.0814 11.9335 12.7771 11.5547 13.4896C11.4126 13.7564 11.23 13.8611 10.9255 13.8611C8.27024 13.851 5.61495 13.8611 2.96304 13.851C2.75333 13.851 2.69244 13.905 2.69244 14.1177C2.69921 16.6403 2.69921 19.1629 2.69244 21.6855C2.69244 21.8847 2.74318 21.9388 2.94275 21.9388C4.49871 21.932 6.05468 21.9354 7.61065 21.9354L7.60388 21.9219ZM16.7875 23.607C16.8991 23.607 17.0141 23.5935 17.1223 23.607C17.3557 23.6408 17.4369 23.5529 17.4031 23.3199C17.3693 23.0836 17.4369 22.8809 17.6906 22.8066C18.0322 22.7087 18.3536 22.5736 18.6648 22.4014C18.8237 22.3136 18.976 22.344 19.1113 22.4588C19.1654 22.5061 19.2229 22.5534 19.2635 22.6108C19.3819 22.7762 19.4766 22.7357 19.595 22.604C19.7607 22.4183 19.9298 22.2359 20.1193 22.0772C20.2951 21.9286 20.2715 21.8375 20.1091 21.6956C19.8317 21.4525 19.8216 21.3343 20.0009 21.0067C20.1396 20.7535 20.2478 20.4867 20.3222 20.2098C20.3831 19.9835 20.5319 19.8788 20.7586 19.8754C20.8228 19.8754 20.8871 19.8687 20.9514 19.8754C21.0934 19.889 21.1543 19.8417 21.1442 19.6897C21.1306 19.4331 21.1205 19.1764 21.1442 18.9231C21.1611 18.6868 21.0799 18.6226 20.8465 18.6395C20.5082 18.6665 20.4034 18.5787 20.3087 18.2579C20.2207 17.9641 20.1023 17.6872 19.9535 17.4204C19.8453 17.2279 19.8689 17.0523 20.0279 16.897C20.0787 16.8463 20.126 16.7889 20.1801 16.745C20.285 16.664 20.2918 16.5964 20.1869 16.5019C19.9975 16.3296 19.8081 16.154 19.6389 15.9616C19.48 15.7792 19.3717 15.7522 19.2026 15.9582C18.9895 16.2115 18.8576 16.2216 18.5734 16.0662C18.3062 15.921 18.0255 15.8062 17.7312 15.7252C17.5079 15.6644 17.3963 15.5192 17.3997 15.2862C17.3997 15.2153 17.3929 15.141 17.3997 15.07C17.4132 14.9451 17.3625 14.9012 17.2373 14.908C16.9735 14.9181 16.7063 14.9316 16.4458 14.908C16.1955 14.8843 16.1177 14.9687 16.1515 15.2119C16.1854 15.4483 16.1143 15.6475 15.8573 15.7184C15.5224 15.8096 15.2078 15.9481 14.9068 16.1135C14.741 16.2047 14.582 16.1777 14.44 16.0527C14.3994 16.0156 14.352 15.9784 14.3216 15.9345C14.1863 15.7421 14.0747 15.7826 13.9394 15.9413C13.8007 16.1068 13.6383 16.252 13.4861 16.4039C13.3373 16.5548 13.3361 16.7022 13.4827 16.8463C13.7161 17.0793 13.7364 17.1874 13.5774 17.4812C13.4658 17.6872 13.3711 17.8966 13.3001 18.1161C13.1343 18.6226 13.1343 18.626 12.5999 18.6429C12.4646 18.6462 12.4172 18.6901 12.424 18.8218C12.4341 19.0785 12.4477 19.3351 12.4274 19.5884C12.4105 19.8248 12.4713 19.9126 12.7284 19.8856C13.0498 19.8518 13.1681 19.9464 13.2527 20.2503C13.3373 20.5441 13.4523 20.8244 13.6045 21.0878C13.7195 21.2904 13.6924 21.4694 13.5301 21.6315C13.4827 21.6754 13.4455 21.7294 13.3948 21.7665C13.2595 21.8645 13.2865 21.9421 13.4015 22.0401C13.591 22.2123 13.7804 22.3879 13.9461 22.5804C14.0983 22.756 14.2032 22.7695 14.3487 22.577C14.4941 22.3778 14.6903 22.2832 14.9338 22.4217C15.2281 22.5871 15.5359 22.7155 15.864 22.8066C16.0298 22.8539 16.1346 22.962 16.1617 23.1443C16.182 23.2963 16.0805 23.5057 16.226 23.5867C16.3477 23.6576 16.5372 23.607 16.6995 23.607C16.73 23.607 16.7638 23.607 16.7942 23.607H16.7875ZM0.865873 16.0359H0.852343C0.852343 17.6534 0.852343 19.271 0.852343 20.8852C0.852343 21.4424 1.06544 21.7024 1.61341 21.8239C1.81637 21.869 1.91784 21.7902 1.91784 21.5876C1.91784 19.0751 1.91784 16.5627 1.91784 14.0468C1.91784 13.3951 2.19521 13.1013 2.83789 13.0776C2.97996 13.0743 3.00702 13.0202 3.01716 12.8953C3.0679 12.2807 3.12202 11.6695 3.18967 11.0548C3.20659 10.8894 3.13555 10.8725 3.00363 10.8725C2.39478 10.8759 1.78592 10.886 1.17707 10.8725C0.933524 10.8657 0.862491 10.94 0.865873 11.1832C0.876021 12.8007 0.872638 14.4183 0.872638 16.0325L0.865873 16.0359ZM18.5193 3.84843C18.5295 3.82817 18.5362 3.80791 18.5464 3.78765C18.11 3.33514 17.6737 2.88263 17.2373 2.43349C17.2272 2.42336 17.2137 2.41323 17.1967 2.40648C17.1122 2.36595 17.0648 2.37946 17.0547 2.48414C17.0242 2.84886 16.9904 3.21357 16.9566 3.57828C16.9498 3.64582 16.9532 3.70322 17.0445 3.71336C17.535 3.75726 18.0255 3.80116 18.5159 3.84843H18.5193Z" fill="#697A8D" stroke="#697A8D" stroke-width="0.5" stroke-miterlimit="10"/>
<path d="M7.09994 5.07422C8.20603 5.17215 9.28506 5.26671 10.3607 5.36464C11.8998 5.50309 13.4422 5.64155 14.9812 5.78C15.1098 5.79013 15.2383 5.80364 15.3635 5.82053C15.5969 5.85429 15.7288 6.01301 15.7119 6.22914C15.695 6.44526 15.5157 6.6006 15.2789 6.58034C14.7106 6.53306 14.1458 6.47903 13.5775 6.42838C12.052 6.28992 10.5298 6.15484 9.00431 6.01977C8.35825 5.96236 7.71218 5.90495 7.06612 5.83741C6.81581 5.81039 6.68389 5.64155 6.70419 5.41867C6.72448 5.21267 6.89361 5.07422 7.09656 5.0776L7.09994 5.07422Z" fill="#697A8D" stroke="#697A8D" stroke-width="0.5" stroke-miterlimit="10"/>
<path d="M15.0118 8.75769C13.696 8.6395 12.3768 8.52468 11.061 8.40649C9.69782 8.28492 8.33128 8.15997 6.96812 8.0384C6.7584 8.02151 6.58589 7.96411 6.52501 7.7446C6.45059 7.4812 6.64001 7.25157 6.93429 7.26845C7.38079 7.29547 7.82728 7.33937 8.27716 7.37989C9.81621 7.51835 11.3586 7.6568 12.8977 7.79526C13.6148 7.85942 14.3353 7.92696 15.0524 7.98775C15.3703 8.01476 15.5395 8.16672 15.5225 8.41324C15.5056 8.653 15.3297 8.7712 15.0152 8.75769H15.0118Z" fill="#697A8D" stroke="#697A8D" stroke-width="0.5" stroke-miterlimit="10"/>
<path d="M16.781 16.7617C18.1577 16.7617 19.2739 17.8694 19.2773 19.2438C19.2841 20.6283 18.1644 21.7529 16.781 21.7529C15.4144 21.7529 14.2847 20.6351 14.2779 19.2674C14.2678 17.893 15.3975 16.7651 16.781 16.7617ZM18.5095 19.2674C18.5128 18.3084 17.7585 17.5384 16.8013 17.5283C15.8406 17.5182 15.0491 18.2949 15.0457 19.2505C15.0457 20.1961 15.8237 20.9762 16.7708 20.9795C17.7213 20.9863 18.5027 20.2163 18.5061 19.264L18.5095 19.2674Z" fill="#697A8D" stroke="#697A8D" stroke-width="0.5" stroke-miterlimit="10"/>
</g>
<defs>
<clipPath id="clip0_1550_31000">
<rect width="22" height="24" fill="white" transform="translate(0 0.460938)"/>
</clipPath>
</defs>
</svg>
